<svg width="1012" height="894" fill="none" xmlns="http://www.w3.org/2000/svg"><circle cx="891" cy="128" r="763" fill="#C84D56"/><circle opacity=".5" cx="772" cy="93" r="232" fill="url(#paint0_linear)"/><rect opacity=".4" x="154.165" y="30.08" width="328.128" height="1127.95" rx="164.064" transform="rotate(-40 154.165 30.08)" fill="url(#paint1_linear)"/><rect opacity=".4" x="616.782" y="720.567" width="39.945" height="136.534" rx="19.973" transform="rotate(-41.812 616.782 720.567)" fill="url(#paint2_linear)"/><rect opacity=".4" x="618" y="442.631" width="39.945" height="217.486" rx="19.973" transform="rotate(-41.812 618 442.631)" fill="url(#paint3_linear)"/><rect opacity=".4" x="193.188" y="50.952" width="63.343" height="289.867" rx="31.672" transform="rotate(-41.812 193.188 50.952)" fill="url(#paint4_linear)"/><rect opacity=".4" x="865" y="324.676" width="39.945" height="247.226" rx="19.973" transform="rotate(-40 865 324.676)" fill="url(#paint5_linear)"/><rect opacity=".4" x="512.946" y="-77.209" width="39.945" height="208.182" rx="19.973" transform="rotate(-40 512.946 -77.209)" fill="url(#paint6_linear)"/><rect opacity=".4" x="650.527" y="-110.157" width="58.313" height="350.404" rx="29.157" transform="rotate(-40 650.527 -110.157)" fill="url(#paint7_linear)"/><defs><linearGradient id="paint0_linear" x1="686.5" y1="-46.5" x2="903.5" y2="284" gradientUnits="userSpaceOnUse"><stop stop-color="#E8616B" stop-opacity="0"/><stop offset="1" stop-color="#E8616B"/></linearGradient><linearGradient id="paint1_linear" x1="344.107" y1="142.69" x2="810.242" y2="483.282" gradientUnits="userSpaceOnUse"><stop stop-color="#E8616B" stop-opacity=".22"/><stop offset="1" stop-color="#E8616B"/></linearGradient><linearGradient id="paint2_linear" x1="639.905" y1="734.198" x2="696.426" y2="775.732" gradientUnits="userSpaceOnUse"><stop stop-color="#E8616B" stop-opacity=".22"/><stop offset="1" stop-color="#E8616B"/></linearGradient><linearGradient id="paint3_linear" x1="641.123" y1="464.344" x2="712.89" y2="497.451" gradientUnits="userSpaceOnUse"><stop stop-color="#E8616B" stop-opacity=".22"/><stop offset="1" stop-color="#E8616B"/></linearGradient><linearGradient id="paint4_linear" x1="229.855" y1="79.891" x2="335.925" y2="138.11" gradientUnits="userSpaceOnUse"><stop stop-color="#E8616B" stop-opacity=".22"/><stop offset="1" stop-color="#E8616B"/></linearGradient><linearGradient id="paint5_linear" x1="888.123" y1="349.358" x2="962.856" y2="379.687" gradientUnits="userSpaceOnUse"><stop stop-color="#E8616B" stop-opacity=".22"/><stop offset="1" stop-color="#E8616B"/></linearGradient><linearGradient id="paint6_linear" x1="536.069" y1="-56.425" x2="606.704" y2="-22.383" gradientUnits="userSpaceOnUse"><stop stop-color="#E8616B"/><stop offset="1" stop-color="#E8616B" stop-opacity=".22"/></linearGradient><linearGradient id="paint7_linear" x1="684.283" y1="-75.175" x2="792.45" y2="-29.962" gradientUnits="userSpaceOnUse"><stop stop-color="#E8616B" stop-opacity=".22"/><stop offset="1" stop-color="#E8616B"/></linearGradient></defs></svg>