<svg width="55" height="55" fill="none" xmlns="http://www.w3.org/2000/svg"><circle cx="27.5" cy="27.5" r="27.5" fill="#E8616B"/><g clip-path="url(#clip0)" fill="#fff"><path d="M23.44 20.117h3.697c.65-1.349-.334-2.94-1.85-2.94-1.512 0-2.5 1.589-1.847 2.94z"/><path d="M25.288 15.127c2.612 0 4.571 2.423 4.004 4.99h5.224v-2.256a.684.684 0 00-.683-.683h-1.38a7.403 7.403 0 00-.65-1.565l.977-.976a.684.684 0 000-.967l-1.934-1.934a.684.684 0 00-.966 0l-.977.976a7.404 7.404 0 00-1.565-.649v-1.38a.684.684 0 00-.683-.683H23.92a.684.684 0 00-.683.684v1.38a7.398 7.398 0 00-1.565.649l-.976-.977a.684.684 0 00-.967 0l-1.934 1.934a.684.684 0 000 .966l.977.977a7.414 7.414 0 00-.65 1.565h-1.38a.684.684 0 00-.683.683v2.256h5.226c-.57-2.573 1.396-4.99 4.003-4.99zm17.116 16.588l-4.024-6.018a12.154 12.154 0 00-.73-3.529H13.174c-2.309 6.27.849 13.499 7.454 15.842v5.965c0 .566.459 1.025 1.025 1.025h11.69c.566 0 1.025-.46 1.025-1.025V38.71h3.008c.566 0 1.025-.46 1.025-1.026V33.31h3.152c.817 0 1.307-.914.852-1.595z"/></g><defs><clipPath id="clip0"><path fill="#fff" transform="translate(10 10)" d="M0 0h35v35H0z"/></clipPath></defs></svg>