<svg width="55" height="55" fill="none" xmlns="http://www.w3.org/2000/svg"><circle cx="27.5" cy="27.5" r="27.5" fill="#E8616B"/><path d="M28.754 19.8l-2.895-.362v.953h3.2a4.633 4.633 0 01-.305-.591zm12.965.044h1.093v5.468H41.72v-5.468zM25.86 26.406h-2.735a.547.547 0 000 1.094h2.734a.547.547 0 000-1.094zm0-2.187h-2.735a.547.547 0 000 1.093h2.734a.547.547 0 000-1.093zm-6.016-10.938h1.093v1.64h-1.093v-1.64zm2.976 5.999c-.079.01-.789.017-.789.017v1.64h.605l.184-1.658z" fill="#fff"/><path d="M31.334 27.64a21.761 21.761 0 01-1.648-4.454l-.425-1.702h-2.18a1.637 1.637 0 010 2.188 1.637 1.637 0 010 2.187 1.64 1.64 0 01-1.222 2.735h-2.638a20.815 20.815 0 00-1.737 8.289v4.836a1.095 1.095 0 001.094 1.093h9.844a1.095 1.095 0 001.094-1.093v-4.836a20.675 20.675 0 00-2.182-9.243zm.541 6.97a3.833 3.833 0 01-3.828 3.828h-4.375a.547.547 0 01-.547-.547v-2.188a3.833 3.833 0 013.828-3.828h4.375a.547.547 0 01.547.547v2.187zm-5.947-18.594h3.654l2.264-.906a2.19 2.19 0 00-2.159-1.829h-7.656v1.906l2.4 1.714a1.71 1.71 0 011.497-.885zm-1.759 2.042c-.035.138-.088.27-.157.394l-.276 2.486h1.013l.017-.068v-1.895a1.712 1.712 0 01-.497-.845l-.1-.072z" fill="#fff"/><path d="M35.375 18.64l-2.042-1.53h-7.405a.615.615 0 00-.077 1.224l3.358.42c.305.038.417.283.518.535a3.475 3.475 0 003.242 2.195v1.094a4.578 4.578 0 01-2.49-.73l.268 1.073c.3 1.195.706 2.362 1.213 3.485h6.477v-6.015h1.094v6.015h1.094V18.75h-4.922a.547.547 0 01-.328-.11zm-12.25 3.391a.547.547 0 000 1.094h2.734a.547.547 0 000-1.094h-2.734zm1.094 13.672v1.64h3.828a2.738 2.738 0 002.734-2.734v-1.64h-3.828a2.737 2.737 0 00-2.734 2.734zm-1.094-18.047a.548.548 0 00-.547-.547h-2.734a.547.547 0 100 1.094h2.734a.547.547 0 00.547-.547z" fill="#fff"/></svg>