<svg width="55" height="55" fill="none" xmlns="http://www.w3.org/2000/svg"><circle cx="27.5" cy="27.5" r="27.5" fill="#E8616B"/><path d="M41.103 12.21c-2.689-1.551-6.395-1.617-9.67-.17-3.031 1.34-5.216 4.291-6.508 6.509a1.292 1.292 0 00-1.15 2.232c-.118.262-.19.438-.218.507l-6.272 13.778a1.291 1.291 0 00-1.698.597 1.295 1.295 0 00.583 1.736l.043.02-1.412 3.102h-3.506a1.295 1.295 0 000 2.59h6.473a1.295 1.295 0 000-2.59h-.122l.898-1.972c.119.034.239.057.358.057a1.29 1.29 0 00.698-2.378l6.501-14.277a1.287 1.287 0 001.708-.613 1.291 1.291 0 00-.53-1.681c1.107-1.867 2.88-4.223 5.201-5.248 2.495-1.102 5.372-1.086 7.329.044 1.439.83 2.266 2.152 2.458 3.928.362 3.327.055 5.558-.907 6.632a2.386 2.386 0 01-.286.264v2.898c.797-.27 1.563-.709 2.213-1.433 1.497-1.667 2.005-4.494 1.555-8.64-.278-2.57-1.607-4.661-3.74-5.891z" fill="#fff"/><path d="M37.416 34.048c.844 0 1.643.192 2.362.527V24.337c0-.715.068-.647-.647-.647h-2.536c-.715 0-7.93.594-9.835 10.015l-1.223 7.787c0 .716.579 1.619 1.294 1.619h6.144a5.588 5.588 0 01-1.184-3.439 5.63 5.63 0 015.625-5.624z" fill="#fff"/><path d="M40.426 36.567a4.394 4.394 0 00-.648-.518 4.3 4.3 0 00-2.363-.706 4.334 4.334 0 00-4.33 4.329 4.32 4.32 0 001.711 3.439 4.323 4.323 0 002.62.89c.496 0 .971-.088 1.416-.243a4.355 4.355 0 002.17-1.664 4.307 4.307 0 00.073-4.728 4.432 4.432 0 00-.65-.799zm-3.01.933a2.171 2.171 0 11-.001 4.343 2.171 2.171 0 010-4.343z" fill="#fff"/></svg>